<svg width="1030" height="374" viewBox="0 0 1030 374" fill="none" xmlns="http://www.w3.org/2000/svg">
<path fill-rule="evenodd" clip-rule="evenodd" d="M422 117.5L415 94L398 64.5L361.5 34.5L317.5 14L266 3L228 0H192L130 9.5L96.5 19L52.5 44.5L23.5 75.5L3.5 121.5L0 173L8 234.5L39 289L64 321L102.5 347L146.5 365.5L200 373.5H237.5L283.5 365.5L331 344.5L361.5 322L390.5 288.5L409.5 256L422 222L428 188.5L430 152L422 117.5ZM608 117.5L615 94L632 64.5L668.5 34.5L712.5 14L764 3L802 0H838L900 9.5L933.5 19L977.5 44.5L1006.5 75.5L1026.5 121.5L1030 173L1022 234.5L991 289L966 321L927.5 347L883.5 365.5L830 373.5H792.5L746.5 365.5L699 344.5L668.5 322L639.5 288.5L620.5 256L608 222L602 188.5L600 152L608 117.5Z" fill="black"/>
</svg>
